<?xml version="1.0" encoding="UTF-8" standalone="no"?>
<svg
   xmlns:dc="http://purl.org/dc/elements/1.1/"
   xmlns:cc="http://creativecommons.org/ns#"
   xmlns:rdf="http://www.w3.org/1999/02/22-rdf-syntax-ns#"
   xmlns:svg="http://www.w3.org/2000/svg"
   xmlns="http://www.w3.org/2000/svg"
   viewBox="0 0 545.82873 339.3475"
   height="339.3475"
   width="545.82874"
   version="1.1"
   id="svg3390">
  <metadata
     id="metadata3396">
    <rdf:RDF>
      <cc:Work
         rdf:about="">
        <dc:format>image/svg+xml</dc:format>
        <dc:type
           rdf:resource="http://purl.org/dc/dcmitype/StillImage" />
        <dc:title></dc:title>
      </cc:Work>
    </rdf:RDF>
  </metadata>
  <defs
     id="defs3394" />
  <g
     transform="translate(-415.76985,-277.11021)"
     id="layer6">
    <rect
       y="270.69058"
       x="409.15036"
       height="350.08499"
       width="553.04126"
       id="rect4572"
       style="fill:#c9b199;fill-opacity:1;stroke:#baa890;stroke-width:0.3443087;stroke-opacity:1" />
  </g>
  <g
     transform="translate(-415.76985,-277.11021)"
     style="display:inline"
     id="layer2">
    <path
       id="path4501"
       d="m 893.83276,279.9427 -8.5232,-0.0543 -13.2334,47.47999 -0.031,0.004 -49.4397,176.96745 -10.9895,35.15535 -0.293,0.222 c -18.6363,-15.3849 -44.22,-36.48646 -65.533,-54.36343 0,0 -20.0144,68.36633 -29.0044,119.93673 l -17.1834,-0.2121 -8.6356,-25.7708 4.5429,-18.5025 9.8936,41.5603 32.1199,-123.96838 c -15.6298,-13.19202 -27.7501,-23.69648 -30.8059,-27.09117 0,0 -27.3936,32.26466 -47.8284,57.38319 l 25.0428,93.11416 4.3493,-11.1068 c 0,0 3.0214,12.2547 4.4028,14.2008 1.3814,1.9462 -21.7286,0.1474 -21.7286,0.1474 l -21.5541,-84.561 c -5.9124,7.4568 -10.3317,13.2993 -11.8146,15.8737 l 7.706,-31.75882 0.016,0.005 42.2347,-173.72942 -0.037,0.004 7.1105,-26.2526 c 0,0 1.307,-2.43081 2.2328,-3.22383 1.1958,-1.02442 2.6371,-1.81985 4.1749,-2.15882 1.6703,-0.36816 4.278,-0.14543 5.7713,0.68839 1.1607,0.64822 1.4712,3.08247 1.4712,3.08247 l -6.4256,26.56993 8.4204,-0.19725 c 0,0 3.0221,-15.32333 5.7841,-22.58837 0.6828,-1.7959 1.238,-3.81077 2.6411,-5.12337 1.6179,-1.5135 3.8899,-2.45875 6.0975,-2.64524 1.582,-0.13361 3.4397,0.08 4.6256,1.13574 1.2328,1.09781 2.1689,3.13298 1.7501,4.62027 l -6.2073,24.26943 8.3062,-0.37924 4.297,-15.94243 c 0,0 3.5081,-9.5728 2.5232,-14.31792 -0.4093,-1.97159 -1.6878,-3.87474 -3.3297,-5.04081 -1.6954,-1.20403 -3.9689,-1.47088 -6.0476,-1.53131 -2.5033,-0.0727 -5.1564,0.26274 -7.3783,1.41822 -2.4955,1.29782 -6.0624,5.86942 -6.0624,5.86942 0,0 -0.8231,-3.78081 -2.1979,-4.95169 -1.6491,-1.4043 -4.124,-1.4813 -6.2828,-1.65642 -2.117,-0.17182 -4.3518,-0.13038 -6.3427,0.60962 -2.5837,0.96034 -6.7499,4.77728 -6.7499,4.77728 l 1.0241,-4.92722 -9.0581,-0.53562 -8.961,37.84503 -0.028,0.004 -40.3584,161.77408 -0.014,-7e-5 -0.4892,2.05022 -1.8745,7.63674 0.049,0.0149 -12.3279,51.67681 -6.5468,-4.3469 12.9462,-51.67712 -7.2992,-4.918 -12.6426,51.94972 -6.7264,-4.4659 12.736,-52.04649 -7.3077,-4.58039 -12.6669,51.82028 -7.5466,-5.0105 12.2487,-52.08255 -7.6276,-5.26441 c 0,0 -9.4273,39.16536 -12.4645,52.13876 l -7.7423,-5.1406 9.8785,-42.6693 0,1.8e-4 34.5994,-150.0657 5.3011,-21.53164 c 0,0 0.9692,-5.10761 6.833,-5.67026 4.1876,-0.36784 4.1001,2.9722 4.1001,2.9722 l -0.8376,4.63334 7.0349,0.30362 c 0,0 1.4327,-4.13891 1.433,-6.28901 2e-4,-2.21156 -0.019,-4.802 -1.4717,-6.46923 -1.1923,-1.36817 -3.1699,-2.11684 -5.0328,-2.20128 -0.266,-0.0131 -0.5298,-0.0106 -0.7887,0.006 -3.9454,0.23137 -10.5278,5.45363 -10.5278,5.45363 l 0.8853,-4.75146 -8.8396,0.24631 -7.0222,30.52841 -31.0773,139.68989 -0.068,-0.0376 -1.3017,5.89727 -0.7989,3.41658 0.04,0.0213 -9.2395,41.85755 -1.7255,-1.0658 -8.8454,-5.87299 0.1153,0.0811 -14.3267,63.60489 12.5013,-0.3479 -1.0113,6.3881 -13.3313,-0.1801 -7.4682,27.3205 -7.0806,-0.3539 6.4334,-26.5039 -5.2251,-0.3057 1.6861,-6.3705 4.888,0.2966 16.4698,-68.10627 5.8865,4.1507 11.7898,-47.41003 -0.1614,-0.0859 29.6534,-138.42433 -0.078,0.005 4.9212,-21.64378 8.714,-0.0103 1.01,-6.65805 -8.2401,0.14183 c 0,0 0.6831,-7.86025 2.6135,-8.6453 3.5374,-2.89159 7.7912,-1.22847 7.7912,-1.22847 l 1.1231,-6.41656 c 0,0 -1.4207,-0.23894 -3.4294,-0.29774 -3.3476,-0.0979 -8.3284,0.30305 -11.0885,3.14038 -4.8902,4.40795 -5.8464,13.57421 -5.8464,13.57421 l -5.0101,-0.13116 -1.6002,6.40408 4.7715,0.12493 -5.1656,23.78928 -29.3581,140.00038 0.1293,0.0645 c -3.1392,12.4339 -9.0869,36.12624 -9.5688,39.06001 l -0.855,-0.56764 c -2.8272,4.23457 -11.5133,13.99133 -22.8114,26.11123 l -17.6387,-15.6912 -7.1109,7.2415 17.8968,15.7517 c -1.6861,1.7869 -3.401,3.5989 -5.1549,5.4448 l -17.9398,-16.0964 -6.583,6.4115 18.2051,16.3137 c -2.0123,2.104 -4.0464,4.2244 -6.0953,6.3556 l -17.8399,-16.5735 -7.0889,6.3983 18.4098,16.9411 c -2.0741,2.1474 -4.1378,4.2762 -6.2003,6.4039 l -17.447,-16.7298 -6.9466,7.4148 17.2395,16.6816 c -2.0258,2.0826 -4.0221,4.134 -5.9844,6.1461 l -16.9768,-17.0689 -6.4141,6.4155 17.9036,16.276 c -1.9287,1.9738 -3.7439,3.8289 -5.556,5.6801 l -17.2303,-16.0066 -6.5692,5.9051 17.3681,16.6675 c -2.0891,2.1311 -3.967,4.0471 -5.7568,5.8722 l -17.5151,-16.2791 -7.0841,6.2291 10.5313,10.4046 13.5254,0.1986 c -4.85,4.9455 -8.866,9.0433 -10.6073,10.8503 l 467.9577,-0.4198 c -4.3215,-2.952 -8.3435,-5.7541 -12.1397,-8.4449 l 0.01,-0.3758 7.4148,-0.5221 12.7148,-38.8196 -6.995,-6.3903 -14.816,44.9223 c -2.0002,-1.4259 -3.9268,-2.8159 -5.799,-4.1789 l 14.5247,-45.2002 -7.9304,-7.131 -14.3755,46.5766 c -2.0959,-1.5749 -4.1186,-3.115 -6.0748,-4.6237 l 13.9015,-47.138 -7.478,-6.1641 -13.3637,47.8662 c -2.3531,-1.8711 -4.6282,-3.7079 -6.8467,-5.5221 l 13.6487,-47.0516 -7.4844,-5.9259 -12.7495,47.5273 c -2.0904,-1.747 -4.1652,-3.4912 -6.2308,-5.2395 l 12.9148,-47.6987 -7.7164,-6.1707 -13.2478,47.0377 c -2.1148,-1.7956 -4.2805,-3.6279 -6.4874,-5.4879 l 12.7028,-46.5087 -7.0011,-6.15148 -13.379,45.96448 -4.4173,-3.3782 c -0.7395,-0.6116 -1.5567,-1.287 -2.3372,-1.932 l 12.5997,-36.90032 46.3478,-168.65574 0.1459,0.004 2.2685,-8.56741 1.2112,-4.29748 -0.074,-0.004 2.9633,-11.19292 1.9399,0.0506 7.3559,15.63877 10.5568,-0.23002 -9.7201,-18.82402 17.5688,-16.58977 -9.5224,-0.58712 -14.8222,14.84717 -1.7704,-0.0886 8.14,-30.42601 z m -338.7528,227.93752 0,0.0167 0.4668,0.3101 -0.4627,-0.32653 z m 235.3202,-226.96074 -5.4625,21.70117 c 0,0 -1.4471,-3.25312 -2.8761,-4.13384 -2.3522,-1.44957 -5.4538,-1.41542 -8.2058,-1.16961 -3.6217,0.32363 -7.5997,1.05669 -10.3552,3.42912 -3.2362,2.78593 -4.4316,8.30583 -5.6958,12.38456 -1.6699,5.38707 -4.356,15.2591 -1.7963,18.45488 2.1001,2.622 7.2247,3.99634 11.1283,3.51455 4.3964,-0.54253 10.3776,-4.26443 10.3776,-4.26443 l -0.6481,2.60614 -0.1544,-0.0159 -38.2295,145.80105 7.237,5.77602 38.5705,-150.87236 -0.024,0.004 14.6033,-52.98884 -8.469,-0.2218 z m 71.0099,14.93601 c -1.0702,-0.028 -2.1329,-0.008 -3.1498,0.0366 -3.7195,0.16091 -7.6365,-0.0728 -11.0918,1.31323 -2.4337,0.97654 -4.7058,2.63798 -6.2852,4.73127 -1.6717,2.21553 -2.176,4.60323 -2.4717,7.36284 -0.2178,2.03241 -0.9437,4.94656 0.4213,6.46799 1.4874,1.65784 3.5745,1.81985 5.7658,2.21921 3.8285,0.69763 10.0647,-0.96297 13.3048,1.19252 1.2693,0.84438 1.3199,1.97361 1.1749,3.49122 -0.166,1.736 -1.8026,3.17824 -3.3136,4.04929 -2.5543,1.47259 -5.8248,1.91583 -8.7307,1.41694 -1.6675,-0.28616 -3.6268,-0.96059 -4.4518,-2.43775 -0.5487,-0.98252 0.1724,-3.37146 0.1724,-3.37146 l -8.5667,-0.0131 c 0,0 -1.0474,3.5386 -0.8993,5.33628 0.1022,1.24179 0.3653,2.62381 1.2156,3.53449 1.0514,1.12629 2.7544,1.46066 4.2574,1.79973 3.1008,0.69955 6.3489,0.47042 9.5272,0.41803 2.4596,-0.0408 4.9636,-0.004 7.358,-0.56661 2.4948,-0.58784 5.1023,-1.31862 7.1238,-2.89435 1.6738,-1.30452 2.8491,-3.22008 3.7639,-5.13485 1.0779,-2.25608 2.1163,-4.75823 1.9203,-7.25066 -0.1367,-1.73718 -0.78,-3.65837 -2.1115,-4.78224 -1.0794,-0.91097 -2.713,-0.82065 -4.109,-1.03572 -3.8381,-0.59145 -6.5186,-0.25294 -10.3603,-0.82019 -1.0096,-0.14908 -3.5831,0.19906 -4.2477,-0.57522 -0.4238,-0.49376 -0.1878,-1.29524 -0.1598,-1.94545 0.051,-1.19213 -0.1352,-2.49431 0.5987,-3.52957 0.8056,-1.13635 2.5162,-1.98618 3.8208,-2.47416 1.8797,-0.70281 4.3185,-1.22083 6.3151,-1.01649 1.4378,0.14714 2.8449,0.53669 3.7547,1.65979 0.6534,0.80679 0.3831,3.09086 0.3831,3.09086 l 7.9712,0.20883 c 0,0 1.2074,-4.3398 0.5416,-6.18972 -0.722,-2.00666 -1.9758,-3.09306 -4.2088,-3.65521 -1.6451,-0.41392 -3.4493,-0.59053 -5.233,-0.63608 z m -39.4805,0.57175 c -0.4264,-0.01 -0.8471,-0.0184 -1.2574,-0.0333 -3.7974,-0.13003 -7.7311,0.34018 -11.2657,1.73427 -2.7829,1.09781 -4.7167,2.3734 -6.5698,4.72206 -2.4542,3.11109 -3.7023,7.29416 -4.8266,11.09392 -0.9185,3.1045 -2.4492,6.61438 -2.2871,9.84795 0.1563,3.11572 -0.3041,6.24381 2.051,8.28996 2.4885,2.16193 7.2767,1.92224 10.5729,1.94817 3.5185,0.028 7.0753,-0.18277 10.4185,-1.27902 2.5038,-0.82096 5.2704,-1.66495 7.0187,-3.63622 1.6192,-1.82576 2.212,-6.98452 2.212,-6.98452 l -8.0049,0.26778 c 0,0 -0.3968,2.65817 -1.2864,3.54742 -1.5411,1.54042 -3.9883,1.92243 -6.146,2.22615 -1.8923,0.2664 -4.1073,0.63739 -5.7197,-0.38813 -1.3238,-0.84211 -2.0644,-2.56399 -2.2792,-4.11825 -0.2948,-2.13268 1.2266,-5.8169 1.4777,-6.28788 0.251,-0.47094 24.0045,-0.44608 24.0045,-0.44608 0,0 2.5417,-7.11061 2.4315,-10.79866 -0.079,-2.62781 -0.2752,-5.77502 -2.1892,-7.57752 -2.092,-1.96992 -5.3692,-2.06155 -8.3548,-2.12878 z m -3.7494,6.10999 c 1.2369,0.0152 2.4498,0.24777 3.504,0.80726 1.0261,0.54455 1.8743,0.88079 2.0748,2.79974 0.2266,2.16562 -0.2662,4.40205 -0.8227,5.9612 l -15.0915,0.0678 c 0,0 0.2177,-4.10147 1.3431,-5.69427 1.2222,-1.73002 3.2977,-2.88698 5.3421,-3.44117 1.1519,-0.3123 2.4132,-0.51532 3.6502,-0.50052 z M 665.22856,292.2719 c -0.4275,-0.01 -0.8505,-0.0135 -1.2656,-0.0135 -3.4571,-0.177 -8.7096,0.32469 -13.272,3.20944 -4.3748,3.35715 -7.2371,14.25396 -7.2371,14.25396 0,0 -3.538,10.70773 -1.7244,15.71131 0.4843,1.33594 1.9993,2.53101 3.2587,3.18915 2.2835,1.19323 5.1601,0.91681 7.7303,1.09753 2.6644,0.18723 5.2247,0.26639 7.8789,-0.0326 1.8994,-0.21404 3.8498,-0.37067 5.6377,-1.04592 1.564,-0.59056 2.985,-1.22911 4.1812,-2.39705 1.2251,-1.19617 2.0951,-2.91114 2.8638,-4.52073 1.391,-2.91192 2.2346,-6.06229 3.105,-9.16969 0.8366,-2.98584 1.6213,-5.99109 1.8492,-9.08351 0.1632,-2.21241 0.7389,-4.67471 -0.3036,-6.63294 -0.8148,-1.53089 -2.4916,-2.54674 -4.0938,-3.21054 -2.3899,-0.99021 -5.6149,-1.29344 -8.6082,-1.35539 z m 111.3152,11.80033 c 0,0 4.7759,0.25102 6.0367,1.94839 1.0448,1.40642 0.3061,3.51523 0.101,5.2551 -0.5157,4.37912 -3.2117,11.58909 -4.5406,13.84687 -1.7055,2.89768 -6.3966,3.47031 -9.7559,3.32566 -2.5089,-0.10803 -4.0947,-1.79297 -4.5427,-4.29688 -0.5448,-3.04549 0.6482,-5.71081 1.5401,-8.67338 1.1233,-3.7314 1.9343,-7.60728 4.7952,-9.9015 1.7009,-1.36414 6.3658,-1.50422 6.3658,-1.50422 z m -112.1685,-4.73531 c 1.6105,0.0473 3.2695,0.34312 4.1881,1.40696 2.5022,2.898 0.3627,7.46541 -0.3251,11.23191 -0.6139,3.3614 -1.1125,6.96033 -3.493,9.41168 -1.2097,1.24594 -3.0722,1.76017 -4.781,2.06935 -2.2702,0.41062 -4.797,0.57196 -6.9118,-0.34995 -0.9123,-0.39766 -2.261,-1.04713 -2.6205,-1.9752 -1.1996,-3.09653 1.0783,-10.05073 1.0783,-10.05073 0,0 1.3242,-7.50321 3.972,-9.85602 1.756,-1.56033 4.4546,-1.72882 6.8008,-1.84748 0.638,-0.0322 1.3601,-0.062 2.0922,-0.0404 z m 146.8783,240.62827 7.1036,5.9258 -7.0131,26.0665 12.9074,0.2535 -1.1797,6.3842 -12.9897,-0.3402 -7.9919,27.982 -9.2736,-0.4113 c 0.355,-0.6659 7.1436,-27.8357 7.1436,-27.8357 l -2.8722,0.093 1.5041,-5.8689 3.2098,-0.085 z m 110.0468,32.0015 c 0,0 -11.1392,33.37 -11.4153,34.7952 l 9.078,-0.2396 9.3383,-28.4041 z m -133.1232,-1.7134 c 1.0711,0.038 4.0243,1.8105 4.3997,2.8165 0.9319,2.4971 1.5524,5.1895 1.0645,7.7089 l -8.1132,0.3783 c 0,0 -0.4566,-2.8089 -2.1868,-3.5181 -1.9321,-0.7921 -5.8627,-0.7181 -7.769,0.1335 -1.3441,0.601 -2.9238,1.2543 -3.1934,2.7016 -0.2166,1.1626 0.3478,2.778 1.4345,3.2452 2.2917,0.9852 6.8105,-0.105 10.1125,0.6026 2.3309,0.4997 5.3774,0.546 6.686,2.5385 1.575,2.3984 0.3322,5.8229 -0.3941,8.5989 -0.535,2.0448 -1.2891,4.2389 -2.8491,5.6651 -2.4368,2.2279 -7.5199,3.5167 -9.2112,3.6411 -1.6914,0.1247 -12.0992,1.3796 -16.6966,-0.6056 -2.1909,-0.9462 -2.6228,-2.3417 -3.2544,-4.6432 -0.4554,-1.6596 1.1443,-5.0347 1.1443,-5.0347 l 9.1097,0.2386 c 0,0 -0.8216,2.0116 0.5197,2.7148 1.8047,0.946 4.8676,1.7287 6.8079,1.1069 1.7091,-0.5477 5.2721,-1.9585 5.4999,-3.7387 0.2375,-1.8547 -2.1575,-2.4235 -3.8845,-3.1402 -2.2585,-0.9376 -7.645,-0.7021 -10.8523,-1.3818 -1.9472,-0.4126 -2.9927,-2.5865 -3.5964,-4.4832 -0.9847,-3.0931 0.5012,-6.7936 2.1915,-9.5647 1.4366,-2.3551 3.8543,-4.3711 6.5454,-4.9778 4.6748,-1.0537 13.6274,-1.1037 16.4854,-1.0031 z m -41.6654,-0.01 c 2.4933,0.085 7.7723,0.4628 10.1102,2.1263 1.9425,1.3821 2.701,3.3576 2.9028,5.3876 0.3838,3.8602 -3.3953,11.1318 -3.3953,11.1318 l -21.7161,-0.3299 c 0,0 -2.9579,4.6384 -2.09,6.8687 0.5939,1.5265 2.6502,2.0719 4.2319,2.4979 2.3057,0.6209 4.7745,0.2256 6.9436,-0.7729 1.5914,-0.7325 2.9253,-2.3107 3.666,-3.2462 0.7409,-0.9356 6.9122,0.4197 7.8728,0.2062 0,0 -1.5965,7.1608 -4.2993,9.1979 -3.8128,2.8736 -9.3719,2.3924 -14.1443,2.2556 -3.8053,-0.1089 -8.4205,0.2057 -11.1567,-2.4408 -2.3172,-2.2411 -2.4741,-6.1507 -2.3807,-9.3729 0.1415,-4.8823 1.956,-9.7547 4.4243,-13.9697 1.9363,-3.3064 3.2477,-6.6892 6.6665,-8.4196 2.941,-1.4887 11.0118,-1.1442 11.0118,-1.1442 0,0 0.5214,0.01 1.3525,0.024 z m -169.141,0.4678 c 3.0877,0.114 6.1609,0.6516 7.977,2.8406 2.9891,3.6024 1.676,9.4618 0.6457,14.0281 -1.1351,5.0305 -3.9737,11.2254 -7.9757,14.4779 -3.5754,2.906 -7.9693,2.8392 -12.572,3.0472 -4.0464,0.1831 -9.3376,0.7786 -11.9244,-2.3382 -3.1273,-3.7682 -1.0605,-9.8837 -0.1216,-14.6896 0.9594,-4.911 1.9715,-10.5975 5.7649,-13.8607 3.6729,-3.1594 9.2585,-3.4829 14.1033,-3.5133 1.2927,-0.01 2.6993,-0.045 4.1028,0.01 z m 167.9977,5.9206 c -1.0139,-0.019 -2.0579,0.1048 -3.0088,0.1986 -1.5371,0.1518 -3.1951,0.1085 -4.5577,0.8358 -1.2416,0.6628 -2.5423,1.6774 -2.9441,3.0262 -0.4189,1.4059 -0.7972,4.0498 0.6694,4.0761 l 14.4367,0.259 c 0,0 0.8573,-2.7387 0.6397,-3.9227 -0.3035,-1.6505 -0.9473,-2.9944 -2.4065,-3.8231 -0.8308,-0.4718 -1.8147,-0.6316 -2.8286,-0.6499 z m 189.959,6.6841 -8.981,23.8772 9.0846,-0.4784 7.1358,-17.241 z m -362.1946,-4.5987 c -0.7729,-0.023 -1.5625,0.021 -2.27,0.025 -1.8554,0.013 -3.997,0.035 -5.4337,1.2083 -1.9332,1.5798 -2.4974,4.4064 -3.0488,6.8415 -0.6088,2.6882 -1.8966,6.0809 -0.2165,8.266 1.3314,1.7318 4.1905,1.5243 6.3749,1.5174 1.9241,-0.01 4.1852,-0.076 5.6069,-1.3725 1.6562,-1.5106 2.1555,-4.3078 2.5341,-6.5172 0.5035,-2.939 1.5957,-6.4647 -0.2763,-8.7857 -0.7403,-0.9179 -1.9825,-1.1453 -3.2706,-1.1839 z m 374.0869,15.4146 -4.1543,12.7828 11.6962,0.068 0.8532,-5.23 z m 12.8543,11.0517 -0.3185,2.027 1.7393,0.03 -0.01,-1.2903 -1.4124,-0.7665 z m -539.183,-4.5394 -4.8649,5.2745 8.7985,-0.782 z"
       style="fill:#251f1f;fill-opacity:1;fill-rule:evenodd;stroke:#baa890;stroke-width:0.20582849px;stroke-linecap:butt;stroke-linejoin:miter;stroke-opacity:1" />
  </g>
</svg>
