<?xml version="1.0" encoding="UTF-8" standalone="no"?>
<!-- Created with Inkscape (http://www.inkscape.org/) -->

<svg
   xmlns:dc="http://purl.org/dc/elements/1.1/"
   xmlns:cc="http://creativecommons.org/ns#"
   xmlns:rdf="http://www.w3.org/1999/02/22-rdf-syntax-ns#"
   xmlns:svg="http://www.w3.org/2000/svg"
   xmlns="http://www.w3.org/2000/svg"
   xmlns:sodipodi="http://sodipodi.sourceforge.net/DTD/sodipodi-0.dtd"
   xmlns:inkscape="http://www.inkscape.org/namespaces/inkscape"
   id="svg3390"
   version="1.1"
   inkscape:version="0.91 r13725"
   width="1556.6162"
   height="961.8714"
   viewBox="0 0 1556.6162 961.8714"
   sodipodi:docname="fdtw_lettersAndMountaintAndBarsScaledColored.svg">
  <metadata
     id="metadata3396">
    <rdf:RDF>
      <cc:Work
         rdf:about="">
        <dc:format>image/svg+xml</dc:format>
        <dc:type
           rdf:resource="http://purl.org/dc/dcmitype/StillImage" />
        <dc:title />
      </cc:Work>
    </rdf:RDF>
  </metadata>
  <defs
     id="defs3394" />
  <sodipodi:namedview
     pagecolor="#ffffff"
     bordercolor="#666666"
     borderopacity="1"
     objecttolerance="10"
     gridtolerance="10"
     guidetolerance="10"
     inkscape:pageopacity="0"
     inkscape:pageshadow="2"
     inkscape:window-width="1440"
     inkscape:window-height="791"
     id="namedview3392"
     showgrid="false"
     inkscape:zoom="0.22627417"
     inkscape:cx="246.39314"
     inkscape:cy="905.63253"
     inkscape:window-x="0"
     inkscape:window-y="1"
     inkscape:window-maximized="1"
     inkscape:current-layer="layer6"
     fit-margin-top="0"
     fit-margin-left="0"
     fit-margin-right="0"
     fit-margin-bottom="0" />
  <g
     inkscape:groupmode="layer"
     id="layer6"
     inkscape:label="background"
     transform="translate(-267.02067,-146.77474)"
     sodipodi:insensitive="true">
    <rect
       style="fill:#c9b199;fill-opacity:1;stroke:#baa890;stroke-width:0.95671409;stroke-opacity:1"
       id="rect4572"
       width="1555.6595"
       height="960.91467"
       x="267.49902"
       y="147.2531" />
  </g>
  <g
     inkscape:groupmode="layer"
     id="layer2"
     inkscape:label="bars"
     style="display:inline"
     transform="translate(-267.02067,-146.77474)"
     sodipodi:insensitive="true">
    <path
       style="fill:#251f1f;fill-opacity:1;fill-rule:evenodd;stroke:#baa890;stroke-width:0.58110708px;stroke-linecap:butt;stroke-linejoin:miter;stroke-opacity:1"
       d="m 1617.2441,157.2141 -24.0634,-0.1533 -37.3611,134.0483 -0.087,0.01 -139.5812,499.6249 -31.0262,99.2526 -0.8271,0.6267 c -52.615,-43.4354 -124.8445,-103.0106 -185.0167,-153.4819 0,0 -56.5059,193.0159 -81.8868,338.6122 l -48.5133,-0.5986 -24.3805,-72.7577 12.8258,-52.2374 27.9321,117.3355 90.6829,-349.9947 c -44.1269,-37.2445 -78.3458,-66.9013 -86.9732,-76.4854 0,0 -77.3391,91.0915 -135.0318,162.0076 l 70.7023,262.8851 12.2791,-31.3573 c 0,0 8.5302,34.5985 12.4303,40.0926 3.9,5.4947 -61.3455,0.4162 -61.3455,0.4162 L 927.15,836.3218 c -16.6921,21.0525 -29.169,37.5474 -33.3555,44.8156 l 21.7559,-89.6632 0.046,0.015 119.2394,-490.4831 -0.1042,0.01 20.0747,-74.1179 c 0,0 3.6901,-6.8628 6.3036,-9.1017 3.3762,-2.8922 7.4454,-5.1379 11.7869,-6.0949 4.7158,-1.0394 12.0779,-0.4106 16.2939,1.9435 3.2771,1.8301 4.1535,8.7026 4.1535,8.7026 l -18.1409,75.0138 23.7729,-0.5569 c 0,0 8.532,-43.2617 16.3299,-63.7728 1.9277,-5.0703 3.4953,-10.7588 7.4566,-14.4646 4.5678,-4.273 10.9821,-6.9417 17.2147,-7.4682 4.4664,-0.3772 9.7112,0.2259 13.0593,3.2065 3.4805,3.0994 6.1233,8.8452 4.9409,13.0442 l -17.5246,68.5189 23.4504,-1.0707 12.1315,-45.0096 c 0,0 9.9043,-27.0265 7.1238,-40.4232 -1.1555,-5.5663 -4.765,-10.9394 -9.4006,-14.2315 -4.7867,-3.3993 -11.2053,-4.1527 -17.0741,-4.3233 -7.0674,-0.2052 -14.5576,0.7418 -20.8307,4.004 -7.0455,3.6641 -17.1158,16.5709 -17.1158,16.5709 0,0 -2.3238,-10.6742 -6.2053,-13.9799 -4.6557,-3.9647 -11.643,-4.1821 -17.7378,-4.6765 -5.977,-0.4851 -12.2863,-0.3681 -17.9071,1.7211 -7.2945,2.7113 -19.0569,13.4875 -19.0569,13.4875 l 2.8915,-13.9108 -25.5733,-1.5122 -25.2994,106.8463 -0.078,0.01 -113.9421,456.7301 -0.039,-2e-4 -1.381,5.7883 -5.2923,21.5605 0.1386,0.042 -34.8047,145.8969 -18.4835,-12.2725 36.5507,-145.8977 -20.6078,-13.8848 -35.6932,146.6673 -18.9903,-12.6083 35.957,-146.9406 -20.6316,-12.9316 -35.762,146.302 -21.3059,-14.1459 34.5813,-147.0425 -21.5347,-14.8628 c 0,0 -26.6158,110.5739 -35.1906,147.2012 l -21.8584,-14.5132 27.8896,-120.4665 0.01,5e-4 97.6832,-423.6743 14.9664,-60.7894 c 0,0 2.7363,-14.4201 19.2913,-16.0086 11.8226,-1.0385 11.5755,8.3913 11.5755,8.3913 l -2.3646,13.0811 19.8611,0.8572 c 0,0 4.045,-11.6852 4.0459,-17.7555 4e-4,-6.2438 -0.053,-13.5573 -4.1551,-18.2643 -3.366,-3.8627 -8.9494,-5.9764 -14.2089,-6.2148 -0.751,-0.037 -1.4956,-0.03 -2.2265,0.018 -11.139,0.6532 -29.7228,15.397 -29.7228,15.397 l 2.4993,-13.4146 -24.9564,0.6954 -19.8256,86.1896 -87.739,394.3807 -0.1926,-0.106 -3.6751,16.6495 -2.2554,9.6459 0.1132,0.06 -26.0856,118.1748 -4.8714,-3.0092 -24.973,-16.5809 0.3255,0.2288 -40.448,179.573 35.2946,-0.9823 -2.8554,18.0354 -37.6376,-0.5087 -21.0848,77.1329 -19.9903,-0.9991 18.1633,-74.8273 -14.7519,-0.8631 4.7604,-17.9856 13.8,0.8373 46.4985,-192.2814 16.6192,11.7185 33.2856,-133.8508 -0.4558,-0.2425 83.7194,-390.8077 -0.2192,0.013 13.8939,-61.106 24.6017,-0.029 2.8516,-18.7974 -23.2639,0.4004 c 0,0 1.9285,-22.1915 7.3786,-24.4079 9.9871,-8.1637 21.9965,-3.4683 21.9965,-3.4683 l 3.1709,-18.1156 c 0,0 -4.0111,-0.6746 -9.682,-0.8406 -9.4512,-0.2765 -23.5134,0.8556 -31.3059,8.8661 -13.8061,12.4448 -16.5057,38.3235 -16.5057,38.3235 l -14.1449,-0.3703 -4.5177,18.0804 13.471,0.3527 -14.5838,67.1633 -82.8856,395.2573 0.3653,0.1821 c -8.8629,35.1041 -25.6548,101.9937 -27.0153,110.2765 l -2.4138,-1.6026 c -7.9819,11.9553 -32.5052,39.5011 -64.4026,73.7187 l -49.7985,-44.3002 -20.0761,20.4445 50.5274,44.4713 c -4.7603,5.0448 -9.6019,10.1605 -14.5537,15.3721 l -50.6487,-45.4445 -18.5854,18.1016 51.3976,46.0577 c -5.6811,5.94 -11.4239,11.9266 -17.2085,17.9435 l -50.3668,-46.7913 -20.0138,18.064 51.9757,47.8291 c -5.8556,6.0627 -11.682,12.0729 -17.505,18.08 l -49.2574,-47.2326 -19.612,20.9338 48.6716,47.0966 c -5.7196,5.8796 -11.3556,11.6714 -16.8956,17.352 l -47.9299,-48.1899 -18.1088,18.1126 50.5466,45.9514 c -5.4451,5.5726 -10.5701,10.8098 -15.686,16.0363 l -48.6455,-45.1909 -18.5467,16.6719 49.0348,47.0566 c -5.8981,6.0166 -11.1999,11.4259 -16.2531,16.5787 l -49.4496,-45.9602 -20.0002,17.5865 29.7324,29.3749 38.1858,0.5605 c -13.6927,13.9624 -25.0309,25.5316 -29.947,30.6334 l 1321.1655,-1.1854 c -12.2006,-8.3341 -23.5557,-16.2452 -34.2734,-23.842 l 0.029,-1.061 20.934,-1.474 35.897,-109.5977 -19.7487,-18.0415 -41.8293,126.8271 c -5.647,-4.0255 -11.0865,-7.9499 -16.3721,-11.7979 l 41.0069,-127.6121 -22.3894,-20.1325 -40.5857,131.4977 c -5.9175,-4.4463 -11.6281,-8.7945 -17.1508,-13.0539 l 39.2476,-133.0827 -21.1126,-17.4029 -37.7291,135.1387 c -6.6434,-5.2827 -13.0665,-10.4683 -19.33,-15.5904 l 38.5338,-132.8389 -21.1302,-16.7302 -35.9953,134.1819 c -5.9017,-4.9322 -11.7594,-9.8566 -17.5911,-14.7926 l 36.4619,-134.6656 -21.7855,-17.4215 -37.402,132.7996 c -5.9705,-5.0696 -12.0849,-10.2425 -18.3155,-15.4938 l 35.8633,-131.306 -19.766,-17.3674 -37.7724,129.7697 -12.4711,-9.5376 c -2.0879,-1.7266 -4.3951,-3.6336 -6.5987,-5.4545 l 35.5722,-104.1792 130.8519,-476.1588 0.4121,0.011 6.4045,-24.188 3.4196,-12.1329 -0.2079,-0.011 8.3662,-31.6005 5.4767,0.143 20.7678,44.1523 29.8045,-0.6494 -27.4423,-53.1451 49.6012,-46.8372 -26.8842,-1.6576 -41.847,41.9174 -4.9981,-0.2501 22.9811,-85.9005 z m -956.387,643.5266 -0.012,0.047 1.3179,0.8755 -1.3064,-0.9219 z m 664.3698,-640.7689 -15.422,61.268 c 0,0 -4.0855,-9.1844 -8.1198,-11.6709 -6.6409,-4.0925 -15.3976,-3.9961 -23.1672,-3.3021 -10.2249,0.9137 -21.4558,2.9833 -29.2355,9.6813 -9.1365,7.8654 -12.5115,23.4495 -16.0806,34.9648 -4.7146,15.2091 -12.2981,43.0804 -5.0715,52.1029 5.9291,7.4026 20.3972,11.2827 31.418,9.9225 12.4123,-1.5317 29.2987,-12.0396 29.2987,-12.0396 l -1.8298,7.3578 -0.4359,-0.045 -107.9316,411.6341 20.4319,16.3072 108.8946,-425.9517 -0.069,0.01 41.2289,-149.6012 -23.9103,-0.6262 z m 200.4794,42.1682 c -3.0213,-0.079 -6.0217,-0.022 -8.8926,0.1034 -10.5013,0.4543 -21.56,-0.2056 -31.3152,3.7076 -6.8709,2.757 -13.2855,7.4477 -17.7445,13.3576 -4.7197,6.255 -6.1435,12.9961 -6.9784,20.7872 -0.615,5.738 -2.6642,13.9654 1.1895,18.2608 4.1994,4.6805 10.0918,5.1379 16.2784,6.2654 10.8087,1.9696 28.4153,-2.7187 37.5628,3.3668 3.5836,2.3839 3.7264,5.572 3.3171,9.8566 -0.4688,4.9012 -5.0892,8.973 -9.3551,11.4322 -7.2116,4.1575 -16.4451,5.4089 -24.649,4.0004 -4.7078,-0.8079 -10.2395,-2.712 -12.5686,-6.8824 -1.5493,-2.7739 0.4865,-9.5185 0.4865,-9.5185 l -24.1858,-0.037 c 0,0 -2.9571,9.9904 -2.5391,15.0657 0.2885,3.5059 1.0313,7.4077 3.4319,9.9788 2.9684,3.1798 7.7764,4.1238 12.0199,5.0811 8.7542,1.975 17.9246,1.3281 26.8976,1.1802 6.9441,-0.1153 14.0137,-0.01 20.7736,-1.5997 7.0434,-1.6596 14.4051,-3.7228 20.1124,-8.1715 4.7255,-3.683 8.0436,-9.0911 10.6264,-14.497 3.0431,-6.3695 5.9748,-13.4337 5.4214,-20.4705 -0.3857,-4.9045 -2.2019,-10.3285 -5.9613,-13.5015 -3.0474,-2.5719 -7.6593,-2.3169 -11.6007,-2.9241 -10.836,-1.6698 -18.4036,-0.7141 -29.2498,-2.3156 -2.8504,-0.4209 -10.1161,0.562 -11.9924,-1.624 -1.1964,-1.394 -0.53,-3.6568 -0.4511,-5.4925 0.1447,-3.3657 -0.3817,-7.0421 1.6902,-9.9649 2.2744,-3.2082 7.1039,-5.6075 10.7873,-6.9852 5.3069,-1.9842 12.1922,-3.4467 17.829,-2.8698 4.0594,0.4154 8.0319,1.5152 10.6006,4.686 1.8447,2.2778 1.0816,8.7263 1.0816,8.7263 l 22.5048,0.5896 c 0,0 3.4088,-12.2524 1.529,-17.4752 -2.0384,-5.6653 -5.5782,-8.7325 -11.8826,-10.3196 -4.6445,-1.1686 -9.7383,-1.6672 -14.7741,-1.7958 z m -111.4635,1.6142 c -1.204,-0.027 -2.3917,-0.052 -3.5501,-0.094 -10.7209,-0.3671 -21.8269,0.9604 -31.806,4.8963 -7.8569,3.0994 -13.3165,6.7007 -18.5481,13.3316 -6.9291,8.7834 -10.4527,20.5933 -13.6269,31.321 -2.593,8.7648 -6.9147,18.6741 -6.4571,27.8033 0.4413,8.7965 -0.8585,17.6279 5.7907,23.4047 7.0255,6.1037 20.5438,5.427 29.85,5.5002 9.9334,0.079 19.9752,-0.516 29.4141,-3.611 7.0687,-2.3178 14.8795,-4.7006 19.8154,-10.266 4.5715,-5.1546 6.2453,-19.7191 6.2453,-19.7191 l -22.5999,0.756 c 0,0 -1.1204,7.5047 -3.632,10.0153 -4.351,4.349 -11.26,5.4275 -17.3518,6.285 -5.3423,0.7521 -11.5959,1.7995 -16.148,-1.0958 -3.7376,-2.3775 -5.8284,-7.2388 -6.435,-11.6269 -0.8321,-6.0211 3.463,-16.4226 4.172,-17.7523 0.7088,-1.3296 67.771,-1.2594 67.771,-1.2594 0,0 7.1759,-20.0751 6.8646,-30.4874 -0.2218,-7.419 -0.7768,-16.3044 -6.1805,-21.3933 -5.9063,-5.5616 -15.1587,-5.8203 -23.5878,-6.0101 z m -10.5857,17.2501 c 3.4921,0.043 6.9164,0.6995 9.8928,2.2791 2.897,1.5374 5.2915,2.4867 5.8577,7.9044 0.6397,6.1141 -0.7517,12.4281 -2.3228,16.83 l -42.6071,0.1913 c 0,0 0.6146,-11.5795 3.7918,-16.0764 3.4507,-4.8843 9.3102,-8.1507 15.0821,-9.7153 3.2522,-0.8817 6.8132,-1.4549 10.3055,-1.4131 z M 971.8353,192.0226 c -1.2071,-0.027 -2.4013,-0.038 -3.5733,-0.038 -9.7603,-0.4997 -24.5895,0.9167 -37.4702,9.0611 -12.3513,9.4781 -20.4322,40.2426 -20.4322,40.2426 0,0 -9.9886,30.2307 -4.8684,44.3571 1.3672,3.7717 5.6445,7.1457 9.2001,9.0038 6.4468,3.3688 14.5684,2.5884 21.8246,3.0986 7.5223,0.5286 14.7508,0.7521 22.2443,-0.092 5.3623,-0.6043 10.8688,-1.0465 15.9167,-2.9529 4.4156,-1.6673 8.4274,-3.4701 11.8044,-6.7675 3.4589,-3.3771 5.915,-8.2189 8.0854,-12.7632 3.927,-8.2211 6.3087,-17.1154 8.7661,-25.8884 2.362,-8.4298 4.5774,-16.9144 5.221,-25.6451 0.4607,-6.2462 2.0859,-13.1979 -0.8572,-18.7265 -2.3006,-4.3221 -7.0346,-7.1901 -11.5579,-9.0642 -6.7474,-2.7956 -15.8524,-3.6517 -24.3033,-3.8266 z m 314.2715,33.3154 c 0,0 13.4836,0.7087 17.0432,5.5008 2.9497,3.9707 0.8641,9.9244 0.285,14.8365 -1.4558,12.3634 -9.0672,32.719 -12.8191,39.0933 -4.8152,8.1809 -18.0594,9.7976 -27.5435,9.3892 -7.0834,-0.305 -11.5604,-5.062 -12.8251,-12.1312 -1.5383,-8.5982 1.83,-16.1231 4.3481,-24.4872 3.1714,-10.5347 5.4609,-21.4773 13.5379,-27.9545 4.8022,-3.8513 17.9724,-4.2468 17.9724,-4.2468 z M 969.426,211.969 c 4.547,0.1336 9.2307,0.9687 11.8242,3.9722 7.0644,8.1818 1.0241,21.0768 -0.9179,31.7106 -1.733,9.4901 -3.1408,19.6508 -9.8616,26.5716 -3.4153,3.5176 -8.6737,4.9694 -13.4981,5.8423 -6.4091,1.1593 -13.543,1.6148 -19.5137,-0.988 -2.5756,-1.1227 -6.3835,-2.9563 -7.3983,-5.5765 -3.3867,-8.7423 3.0444,-28.3758 3.0444,-28.3758 0,0 3.7384,-21.1835 11.2138,-27.8261 4.9577,-4.4052 12.5767,-4.8809 19.2005,-5.2159 1.8013,-0.091 3.8399,-0.1752 5.9067,-0.1142 z m 414.6757,679.356 20.0553,16.7299 -19.8,73.5924 36.4411,0.7158 -3.3308,18.0242 -36.6731,-0.9603 -22.5632,79.0003 -26.1818,-1.1612 c 1.0023,-1.88 20.1682,-78.5874 20.1682,-78.5874 l -8.1089,0.2632 4.2465,-16.5695 9.062,-0.2397 z m 310.6904,90.3483 c 0,0 -31.4488,94.2122 -32.2282,98.2359 l 25.6294,-0.6765 26.3646,-80.192 z m -375.8412,-4.8372 c 3.0239,0.1068 11.3617,5.1115 12.4216,7.9515 2.6308,7.05 4.3828,14.6514 3.0052,21.7643 l -22.9055,1.0681 c 0,0 -1.2893,-7.9302 -6.1741,-9.9326 -5.4546,-2.2363 -16.5519,-2.0273 -21.9338,0.377 -3.7946,1.6968 -8.2545,3.5412 -9.0158,7.6274 -0.6114,3.2823 0.982,7.843 4.0499,9.1618 6.4702,2.7817 19.228,-0.2964 28.5503,1.7015 6.5808,1.4106 15.1819,1.5413 18.8763,7.1669 4.4467,6.7713 0.938,16.4394 -1.1126,24.2767 -1.5105,5.7731 -3.6395,11.9676 -8.0437,15.9941 -6.8797,6.29 -21.2306,9.9286 -26.0058,10.2799 -4.7751,0.3519 -34.1592,3.8949 -47.1386,-1.71 -6.1855,-2.6711 -7.4051,-6.611 -9.1882,-13.1087 -1.2857,-4.6855 3.2308,-14.2144 3.2308,-14.2144 l 25.719,0.6736 c 0,0 -2.3196,5.6792 1.4671,7.6646 5.0951,2.6709 13.7425,4.8805 19.2206,3.1251 4.8252,-1.5464 14.8846,-5.5293 15.5277,-10.5554 0.6704,-5.2363 -6.0914,-6.8422 -10.967,-8.8656 -6.3765,-2.6469 -21.5839,-1.9821 -30.639,-3.901 -5.4974,-1.165 -8.449,-7.3026 -10.1536,-12.6573 -2.78,-8.7326 1.4151,-19.18 6.1874,-27.0038 4.0558,-6.6488 10.8817,-12.3405 18.4793,-14.0534 13.198,-2.9749 38.4737,-3.116 46.5425,-2.8322 z m -117.6322,-0.028 c 7.0392,0.2393 21.9431,1.3066 28.5438,6.003 5.484,3.9022 7.6256,9.4793 8.1953,15.2105 1.0835,10.8985 -9.5858,31.428 -9.5858,31.428 l -61.3101,-0.9313 c 0,0 -8.3511,13.0954 -5.9008,19.392 1.6768,4.3098 7.4822,5.8497 11.9479,7.0522 6.5095,1.7532 13.4796,0.6371 19.6034,-2.1819 4.493,-2.0682 8.2591,-6.5237 10.3503,-9.165 2.0915,-2.6413 19.5149,1.1851 22.2267,0.5821 0,0 -4.5073,20.217 -12.138,25.9681 -10.7644,8.1129 -26.4593,6.7544 -39.933,6.3681 -10.7434,-0.3072 -23.7731,0.581 -31.4982,-6.891 -6.5419,-6.327 -6.985,-17.3648 -6.7213,-26.4621 0.3996,-13.784 5.5223,-27.54 12.491,-39.44 5.4666,-9.3349 9.1691,-18.8854 18.8212,-23.7708 8.3032,-4.2029 31.0891,-3.2303 31.0891,-3.2303 0,0 1.472,0.027 3.8186,0.067 z M 723.79,978.1289 c 8.7174,0.3216 17.3937,1.8396 22.5211,8.0195 8.4388,10.1707 4.7318,26.7132 1.8229,39.605 -3.2046,14.2024 -11.2188,31.6922 -22.5174,40.8749 -10.0943,8.2043 -22.4994,8.0157 -35.4942,8.603 -11.4239,0.5169 -26.3622,2.1982 -33.6655,-6.6014 -8.8292,-10.6384 -2.9942,-27.9042 -0.3434,-41.4723 2.7087,-13.8651 5.5661,-29.9195 16.276,-39.1324 10.3695,-8.9198 26.1391,-9.8332 39.817,-9.9191 3.6499,-0.026 7.621,-0.1257 11.5835,0.02 z m 474.301,16.7152 c -2.8625,-0.053 -5.8102,0.2958 -8.4948,0.5609 -4.3397,0.4284 -9.0204,0.3062 -12.8675,2.3595 -3.5053,1.8713 -7.1775,4.7359 -8.312,8.5438 -1.1825,3.9691 -2.2508,11.4337 1.8899,11.508 l 40.7587,0.731 c 0,0 2.4203,-7.7321 1.8059,-11.0747 -0.8568,-4.6598 -2.6744,-8.4541 -6.7941,-10.7936 -2.3455,-1.3321 -5.1234,-1.7831 -7.9859,-1.8349 z m 536.3034,18.871 -25.3557,67.4114 25.648,-1.3504 20.1464,-48.676 z M 711.8252,1000.7318 c -2.1822,-0.064 -4.4113,0.06 -6.4088,0.072 -5.2383,0.037 -11.2845,0.099 -15.3407,3.4112 -5.4579,4.4603 -7.0508,12.4405 -8.6077,19.3154 -1.7188,7.5895 -5.3544,17.1681 -0.6111,23.3372 3.759,4.8891 11.8308,4.3035 17.998,4.2838 5.4322,-0.019 11.8159,-0.2137 15.8296,-3.8748 4.6761,-4.2647 6.0857,-12.1621 7.1544,-18.3998 1.4216,-8.2975 4.5052,-18.2516 -0.7799,-24.8042 -2.0901,-2.5914 -5.5971,-3.2334 -9.2338,-3.3424 z m 1056.1441,43.5194 -11.7287,36.0892 33.0214,0.1914 2.4088,-14.7656 z m 36.2911,31.2019 -0.8994,5.7227 4.9105,0.084 -0.025,-3.6429 -3.9875,-2.164 z m -1522.2531,-12.8161 -13.735,14.8915 24.8406,-2.208 z"
       id="path4501"
       inkscape:connector-curvature="0"
       sodipodi:nodetypes="ccccccccccccccccccscccccccccsscccssssccccsssscsssccccccccccccccccccccccccccccccccssccccccccccccccccccccccccccccccccccccccscccccccccccccccccccccccccccccccccccccccccccccccccccccccccccccccccccccccccccccccccccccccccccccsssssscccccccccccsssssssssssccsssssssssssscssssccsscccssssssssccssssccssccscsccsssccccsssscsscssscccssssssscssssssscsssccccccccccccccccccccccssssssssccsccccssssssccssccsssccscscsscccsssssssssscccsccsscccccccsssssssscccccccccccccccc" />
  </g>
</svg>
