<?xml version="1.0" encoding="UTF-8" standalone="no"?>
<!-- Created with Inkscape (http://www.inkscape.org/) -->

<svg
   xmlns:dc="http://purl.org/dc/elements/1.1/"
   xmlns:cc="http://creativecommons.org/ns#"
   xmlns:rdf="http://www.w3.org/1999/02/22-rdf-syntax-ns#"
   xmlns:svg="http://www.w3.org/2000/svg"
   xmlns="http://www.w3.org/2000/svg"
   xmlns:sodipodi="http://sodipodi.sourceforge.net/DTD/sodipodi-0.dtd"
   xmlns:inkscape="http://www.inkscape.org/namespaces/inkscape"
   id="svg3390"
   version="1.1"
   inkscape:version="0.91 r13725"
   width="606.11554"
   height="144.17931"
   viewBox="0 0 606.11554 144.1793"
   sodipodi:docname="roundMedWidelogotoshow.svg">
  <metadata
     id="metadata3396">
    <rdf:RDF>
      <cc:Work
         rdf:about="">
        <dc:format>image/svg+xml</dc:format>
        <dc:type
           rdf:resource="http://purl.org/dc/dcmitype/StillImage" />
        <dc:title></dc:title>
      </cc:Work>
    </rdf:RDF>
  </metadata>
  <defs
     id="defs3394" />
  <sodipodi:namedview
     pagecolor="#ffffff"
     bordercolor="#666666"
     borderopacity="1"
     objecttolerance="10"
     gridtolerance="10"
     guidetolerance="10"
     inkscape:pageopacity="0"
     inkscape:pageshadow="2"
     inkscape:window-width="1440"
     inkscape:window-height="791"
     id="namedview3392"
     showgrid="false"
     inkscape:zoom="0.64"
     inkscape:cx="648.84869"
     inkscape:cy="50.593958"
     inkscape:window-x="-5"
     inkscape:window-y="141"
     inkscape:window-maximized="0"
     inkscape:current-layer="layer6"
     fit-margin-top="0"
     fit-margin-left="0"
     fit-margin-right="0"
     fit-margin-bottom="0" />
  <g
     inkscape:groupmode="layer"
     id="layer6"
     inkscape:label="background"
     transform="translate(-273.04067,-476.7684)">
    <rect
       style="fill:#c9b199;fill-opacity:1;stroke:#baa890;stroke-width:0.23108965;stroke-opacity:1"
       id="rect4572"
       width="605.88446"
       height="143.94821"
       x="273.15622"
       y="476.88394"
       ry="12.206929" />
  </g>
  <g
     inkscape:groupmode="layer"
     id="layer2"
     inkscape:label="bars"
     style="display:inline"
     transform="translate(-273.04067,-476.7684)">
    <path
       style="fill:#251f1f;fill-opacity:1;fill-rule:evenodd;stroke:#baa890;stroke-width:0.12431879px;stroke-linecap:butt;stroke-linejoin:miter;stroke-opacity:1"
       d="m 686.01894,481.98875 -5.14795,-0.0328 -7.99287,28.67754 -0.0187,0.002 c 0,0 -13.19668,37.14034 -20.69115,61.11512 l -0.17697,0.13408 c -11.25618,-9.29235 -26.70854,-22.03753 -39.58142,-32.83508 0,0 -12.08854,41.29273 -17.51843,72.44084 l -10.37864,-0.1281 -5.21584,-15.56536 2.74388,-11.17537 5.97566,25.1021 19.40016,-74.87593 c -9.44027,-7.96788 -16.76084,-14.31249 -18.60652,-16.36286 0,0 -16.54552,19.4876 -28.88798,34.659 l 15.12566,56.24022 2.62694,-6.70842 c 0,0 1.8249,7.40174 2.65926,8.57717 0.83435,1.17549 -13.12391,0.089 -13.12391,0.089 l -13.0185,-51.07418 c -3.57105,4.50385 -6.24027,8.03267 -7.13593,9.58759 5.36471,-23.59747 14.36585,-57.10488 14.36585,-57.10488 l -0.0223,0.002 4.29468,-15.85637 c 0,0 0.78942,-1.46819 1.3486,-1.94717 0.72225,-0.61874 1.59279,-1.09917 2.52161,-1.30391 1.00884,-0.22236 2.58387,-0.0878 3.48582,0.41579 0.70105,0.39152 0.88859,1.86178 0.88859,1.86178 l -3.88101,16.04803 5.08585,-0.11913 c 0,0 1.82533,-9.25517 3.49355,-13.6432 0.41241,-1.08471 0.74775,-2.30168 1.59521,-3.09448 0.9772,-0.91414 2.34947,-1.48506 3.68284,-1.5977 0.95551,-0.0807 2.07755,0.0483 2.79383,0.68598 0.7446,0.66307 1.30999,1.89229 1.05704,2.7906 l -3.74916,14.65855 5.01688,-0.22906 2.59536,-9.6291 c 0,0 2.11886,-5.7819 1.52399,-8.64791 -0.24722,-1.19083 -1.01942,-2.34032 -2.01111,-3.04461 -1.02401,-0.72723 -2.39719,-0.8884 -3.65271,-0.9249 -1.51197,-0.0439 -3.11442,0.15869 -4.45643,0.85659 -1.50726,0.78387 -3.66164,3.54509 -3.66164,3.54509 0,0 -0.49715,-2.28358 -1.32752,-2.99079 -0.99604,-0.84818 -2.49086,-0.89469 -3.79476,-1.00046 -1.27865,-0.10378 -2.62845,-0.0788 -3.83094,0.3682 -1.56054,0.58004 -4.07689,2.88544 -4.07689,2.88544 l 0.61855,-2.976 -5.47102,-0.32351 -5.41238,22.8581 -0.0169,0.002 c 0,0 -10.90113,40.44666 -17.42102,67.77708 l -3.95421,-2.62549 7.8194,-31.21258 -4.40866,-2.97043 -7.63603,31.37722 -4.06269,-2.69737 7.69244,-31.43567 -4.41379,-2.76652 -7.65071,31.29905 -4.55809,-3.02631 7.39812,-31.45745 -4.60701,-3.17966 c 0,0 -5.69401,23.65557 -7.52846,31.4914 l -4.67629,-3.10488 c 4.50581,-20.93301 11.0567,-49.40494 11.0567,-49.40494 l 3.20182,-13.00494 c 0,0 0.58539,-3.08495 4.12708,-3.42479 2.52927,-0.22217 2.47642,1.79519 2.47642,1.79519 l -0.5059,2.7985 4.24903,0.18338 c 0,0 0.86534,-2.49987 0.86552,-3.79851 1.2e-4,-1.33577 -0.0115,-2.90037 -0.8889,-3.90737 -0.72014,-0.82636 -1.91459,-1.27855 -3.03977,-1.32955 -0.16066,-0.008 -0.32,-0.006 -0.47637,0.004 -2.38299,0.13975 -6.35871,3.29395 -6.35871,3.29395 l 0.53472,-2.86984 -5.33905,0.14877 -4.24136,18.43892 c 0,0 -5.45606,28.46206 -9.82908,48.26349 l -1.04218,-0.64374 -5.34256,-3.54724 0.0696,0.049 -8.65321,38.41685 7.55069,-0.21013 -0.61082,3.85837 -8.052,-0.10878 -4.51073,16.50136 -4.27663,-0.21375 3.88572,-16.00815 -3.15592,-0.18464 1.01839,-3.84773 2.95232,0.17915 9.94763,-41.13566 3.5554,2.50699 c 5.10453,-19.12489 9.12627,-45.28899 9.12627,-45.28899 l -0.0471,0.003 2.97236,-13.07267 5.26319,-0.006 0.61003,-4.02141 -4.97695,0.0857 c 0,0 0.41259,-4.74753 1.57853,-5.22169 2.13656,-1.7465 4.70583,-0.74199 4.70583,-0.74199 l 0.67834,-3.87555 c 0,0 -0.85809,-0.14432 -2.07133,-0.17983 -2.02193,-0.0591 -5.03029,0.18303 -6.69737,1.89676 -2.95364,2.66237 -3.53118,8.19872 -3.53118,8.19872 l -3.02606,-0.0792 -0.96651,3.86801 2.88195,0.0755 -3.11998,14.36854 c 0,0 -4.48782,24.70396 -7.62584,41.18464 l -0.51641,-0.34285 c -1.70761,2.55765 -6.95394,8.45065 -13.77791,15.77098 l -10.65363,-9.47736 -4.29493,4.3738 10.80953,9.51391 c -1.0184,1.07927 -2.05418,2.17371 -3.11352,3.28861 l -10.8355,-9.7221 -3.97608,3.8725 10.99574,9.85335 c -1.21542,1.2708 -2.444,2.5515 -3.68152,3.83873 l -10.77516,-10.01026 -4.28164,3.86452 11.11938,10.23229 c -1.25274,1.29701 -2.4992,2.58279 -3.74494,3.86791 l -10.53785,-10.10467 -4.19569,4.47848 10.41252,10.07555 c -1.22356,1.25788 -2.42931,2.49691 -3.61453,3.7122 l -10.25385,-10.30948 -3.87407,3.87491 10.81364,9.83058 c -1.16492,1.19216 -2.26129,2.31262 -3.35578,3.43073 l -10.40697,-9.66786 -3.96774,3.56664 10.49019,10.06704 c -1.2618,1.28716 -2.39604,2.44441 -3.47706,3.54676 l -10.57898,-9.83245 -4.27874,3.76233 6.36082,6.28429 8.16923,0.11996 c -2.92936,2.98704 -5.35499,5.46208 -6.40672,6.55349 l 282.64278,-0.25355 c -2.61015,-1.78299 -5.03941,-3.47543 -7.33228,-5.10066 l 0.006,-0.22698 4.47848,-0.31534 7.67964,-23.44674 -4.22493,-3.85969 -8.94875,27.13272 c -1.2081,-0.86123 -2.37175,-1.70078 -3.50255,-2.52402 l 8.77281,-27.30057 -4.7899,-4.30707 -8.68269,28.1319 c -1.26591,-0.95122 -2.4876,-1.88143 -3.66913,-2.79267 l 8.39639,-28.47099 -4.51665,-3.72306 -8.07157,28.91081 c -1.42125,-1.13013 -2.7954,-2.23955 -4.13535,-3.33531 l 8.24371,-28.4188 -4.52052,-3.57919 -7.7006,28.70611 c -1.26259,-1.05517 -2.51575,-2.10866 -3.76336,-3.16461 l 7.80044,-28.80965 -4.66064,-3.72705 -8.00157,28.4104 c -1.27732,-1.08453 -2.58539,-2.19122 -3.91834,-3.31465 l 7.67239,-28.09089 -4.22861,-3.71544 -8.08081,27.76218 -2.66801,-2.0404 c -0.44665,-0.3694 -0.94024,-0.77734 -1.41165,-1.16692 7.71782,-22.47717 15.27097,-45.01025 22.86337,-67.52998 l 0.0881,0.002 -1.697,5.20647 0.73156,-2.59565 -0.0447,-0.002 1.78981,-6.76044 1.17169,0.0306 4.4429,9.44569 6.37623,-0.13893 -5.87087,-11.36956 10.61142,-10.02009 -5.75145,-0.35462 -8.9525,8.96758 -1.0693,-0.0535 4.91649,-18.37707 z m -188.79643,70.66708 0,0.0101 0.28195,0.1873 -0.27947,-0.19722 z m 126.32395,-70.07712 -3.29931,13.10734 c 0,0 -0.87404,-1.96486 -1.73714,-2.49681 -1.42071,-0.87553 -3.29405,-0.8549 -4.95624,-0.70643 -2.18748,0.19547 -4.59016,0.63823 -6.25446,2.07116 -1.95464,1.68268 -2.67665,5.01665 -3.44022,7.48018 -1.0086,3.25374 -2.63099,9.21637 -1.08495,11.1466 1.26845,1.58367 4.36366,2.41376 6.72141,2.12276 2.65539,-0.32768 6.26799,-2.57568 6.26799,-2.57568 l -0.39145,1.57409 -0.0933,-0.01 -7.28271,21.05731 4.3711,3.48867 7.48867,-24.12034 -0.0145,0.002 8.82028,-32.00485 -5.11521,-0.13396 z m 42.88942,9.02124 c -0.64639,-0.0169 -1.28825,-0.005 -1.90245,0.0221 -2.24655,0.0972 -4.61239,-0.044 -6.69936,0.79318 -1.46994,0.58982 -2.84227,1.59332 -3.79621,2.85765 -1.0097,1.33817 -1.31429,2.78032 -1.49289,4.4471 -0.13155,1.22756 -0.56999,2.98768 0.25446,3.90662 0.89838,1.00132 2.15897,1.09917 3.4825,1.34038 2.31238,0.42136 6.079,-0.58163 8.03599,0.72027 0.76665,0.51 0.79721,1.19205 0.70963,2.10867 -0.10026,1.04853 -1.08875,1.91964 -2.00139,2.44574 -1.54277,0.88944 -3.51813,1.15715 -5.27327,0.85582 -1.00716,-0.17284 -2.19056,-0.58019 -2.68885,-1.47238 -0.33141,-0.59343 0.10413,-2.03633 0.10413,-2.03633 l -5.17422,-0.008 c 0,0 -0.63262,2.13729 -0.54317,3.22307 0.0617,0.75004 0.22063,1.58477 0.73421,2.13481 0.63504,0.68027 1.66364,0.88223 2.57144,1.08702 1.87285,0.42252 3.83468,0.28413 5.75435,0.25249 1.48558,-0.0246 2.99798,-0.002 4.44417,-0.34223 1.50684,-0.35505 3.08175,-0.79644 4.30272,-1.74816 1.01097,-0.78792 1.72084,-1.94491 2.27337,-3.10141 0.65104,-1.36266 1.27823,-2.87394 1.15985,-4.37934 -0.0826,-1.04925 -0.47112,-2.20963 -1.27533,-2.88844 -0.65195,-0.55022 -1.63863,-0.49567 -2.48181,-0.62557 -2.31818,-0.35723 -3.93718,-0.15277 -6.25754,-0.49539 -0.60979,-0.09 -2.16416,0.12024 -2.56558,-0.34742 -0.25597,-0.29823 -0.11342,-0.78232 -0.0965,-1.17504 0.0308,-0.72004 -0.0817,-1.50654 0.36161,-2.13183 0.48657,-0.68635 1.51976,-1.19964 2.30773,-1.49438 1.13532,-0.42449 2.60834,-0.73737 3.81427,-0.61395 0.86842,0.0889 1.7183,0.32416 2.26781,1.0025 0.39465,0.4873 0.23139,1.86686 0.23139,1.86686 l 4.81454,0.12613 c 0,0 0.72926,-2.62121 0.32712,-3.73854 -0.43608,-1.21201 -1.19336,-1.86819 -2.54208,-2.20772 -0.99363,-0.25001 -2.08335,-0.35668 -3.16069,-0.38419 z m -23.84591,0.34533 c 0,0.25761 -0.51164,-0.0111 -0.75946,-0.0201 -2.2936,-0.0785 -4.66952,0.20546 -6.8044,1.04748 -1.68084,0.66307 -2.84884,1.43352 -3.9681,2.85209 -1.48232,1.87907 -2.23616,4.40561 -2.91523,6.70064 -0.55477,1.87509 -1.4793,3.99503 -1.38139,5.94808 0.0944,1.88187 -0.18368,3.77122 1.23879,5.00707 1.50303,1.30579 4.39507,1.16102 6.38594,1.17668 2.12515,0.0169 4.27343,-0.11039 6.2927,-0.77251 1.51227,-0.49586 3.18328,-1.00562 4.23924,-2.19625 0.97798,-1.10275 1.33603,-4.2186 1.33603,-4.2186 l -4.8349,0.16174 c 0,0 -0.23966,1.60551 -0.77697,2.14261 -0.93082,0.9304 -2.40891,1.16114 -3.71214,1.34458 -1.14294,0.1609 -2.48078,0.38498 -3.45465,-0.23443 -0.79957,-0.50863 -1.24689,-1.54863 -1.37662,-2.48739 -0.17806,-1.28812 0.74085,-3.51336 0.89252,-3.79783 0.1516,-0.28444 14.49853,-0.26943 14.49853,-0.26943 0,0 1.53516,-4.29475 1.4686,-6.5223 -0.0477,-1.58718 -0.16622,-3.48807 -1.32226,-4.57677 -1.26355,-1.18981 -3.24295,-1.24516 -5.04623,-1.28576 z m -2.26461,3.69038 c 0.74708,0.009 1.47966,0.14966 2.11639,0.48758 0.61976,0.32891 1.13206,0.53199 1.25316,1.69102 0.13687,1.30802 -0.16078,2.65881 -0.4969,3.60052 l -9.11515,0.041 c 0,0 0.13149,-2.47725 0.81122,-3.43929 0.7382,-1.04492 1.99179,-1.74371 3.22659,-2.07844 0.69574,-0.18863 1.45755,-0.31125 2.20469,-0.30231 z m -92.38157,-6.20017 c -0.0527,0.25283 -0.51369,-0.008 -0.76441,-0.008 -2.08806,-0.10691 -5.26053,0.19611 -8.01618,1.93848 -2.64235,2.02769 -4.37115,8.60928 -4.37115,8.60928 0,0 -2.13693,6.46738 -1.04153,9.48951 0.29252,0.80689 1.20756,1.52871 1.96823,1.92622 1.37922,0.7207 3.11666,0.55374 4.66904,0.6629 1.60928,0.11308 3.15568,0.16089 4.7588,-0.0197 1.14722,-0.12928 2.32524,-0.22388 3.40512,-0.63173 0.94465,-0.35669 1.80292,-0.74237 2.52541,-1.4478 0.73995,-0.72248 1.26543,-1.75831 1.72972,-2.73049 0.84015,-1.75877 1.34968,-3.66157 1.87539,-5.53842 0.5053,-1.80342 0.97925,-3.61857 1.1169,-5.48636 0.0986,-1.33628 0.44629,-2.82349 -0.18337,-4.00625 -0.49213,-0.92464 -1.5049,-1.53821 -2.47262,-1.93914 -1.44348,-0.59808 -3.39136,-0.78123 -5.19929,-0.81864 z m 67.23351,7.1273 c 0,0 2.88461,0.15162 3.64612,1.17681 0.63105,0.84947 0.18488,2.12318 0.061,3.17404 -0.31147,2.64496 -1.93984,6.99972 -2.74248,8.3634 -1.03011,1.75018 -3.8635,2.09604 -5.89249,2.00868 -1.51536,-0.0653 -2.47317,-1.08294 -2.74375,-2.59528 -0.32906,-1.83946 0.3915,-3.44929 0.9302,-5.23866 0.67847,-2.25373 1.16831,-4.59474 2.89627,-5.98043 1.02733,-0.82393 3.84489,-0.90853 3.84489,-0.90853 z m -67.74889,-2.86009 c 0.97273,0.0286 1.97475,0.20724 2.52958,0.84979 1.51131,1.75037 0.21906,4.50905 -0.19636,6.78399 -0.37079,2.03026 -0.67194,4.20399 -2.10975,5.68458 -0.73064,0.75254 -1.85558,1.06313 -2.88768,1.24987 -1.37119,0.24801 -2.89735,0.34546 -4.17468,-0.21136 -0.55102,-0.24019 -1.36562,-0.63246 -1.58276,-1.19301 -0.72455,-1.87028 0.65129,-6.07056 0.65129,-6.07056 0,0 0.7998,-4.53188 2.39906,-5.95296 1.06061,-0.94243 2.69054,-1.04419 4.10762,-1.11586 0.38535,-0.0194 0.82149,-0.0374 1.26368,-0.0244 z m 104.52095,78.3322 4.29052,3.57914 -4.23586,15.74396 7.79597,0.15311 -0.71253,3.85601 -7.84568,-0.20548 -4.82704,16.90091 -5.60118,-0.24842 c 0.21441,-0.4022 4.31467,-16.81254 4.31467,-16.81254 l -1.73478,0.0562 0.90846,-3.54477 1.9387,-0.0513 z m 66.4674,19.32866 c 0,0 -6.72799,20.15522 -6.89475,21.01603 l 5.48304,-0.14472 5.64026,-17.15585 z m -80.40537,-1.03488 c 0.64694,0.023 2.43065,1.09353 2.65739,1.70114 0.56286,1.50823 0.93764,3.13442 0.64295,4.65612 l -4.90031,0.22849 c 0,0 -0.27578,-1.69656 -1.32081,-2.12491 -1.16697,-0.47842 -3.54103,-0.43372 -4.69242,0.0806 -0.81182,0.363 -1.76595,0.75758 -1.92878,1.63174 -0.13083,0.7022 0.21006,1.67789 0.86642,1.96008 1.38417,0.59505 4.11349,-0.0634 6.10787,0.36396 1.40785,0.30182 3.24791,0.32978 4.03829,1.53324 0.95129,1.44861 0.20065,3.51698 -0.23803,5.19367 -0.32313,1.23504 -0.77861,2.56026 -1.72083,3.42167 -1.47181,1.34564 -4.54196,2.12406 -5.5635,2.1992 -1.02159,0.0753 -7.30782,0.83326 -10.08461,-0.36578 -1.32329,-0.5715 -1.58415,-1.41437 -1.96563,-2.80446 -0.27506,-1.00238 0.69115,-3.04092 0.69115,-3.04092 l 5.50218,0.14412 c 0,0 -0.49624,1.21499 0.3139,1.63971 1.09002,0.57138 2.93999,1.04413 4.11192,0.66856 1.03228,-0.3308 3.1843,-1.18292 3.32189,-2.25814 0.14345,-1.12023 -1.30311,-1.46378 -2.34621,-1.89666 -1.36411,-0.5663 -4.61752,-0.42406 -6.5547,-0.8346 -1.17609,-0.2492 -1.80757,-1.56222 -2.1722,-2.70781 -0.59475,-1.86821 0.30272,-4.10328 1.32365,-5.77701 0.8677,-1.42246 2.32797,-2.64011 3.95337,-3.00655 2.82354,-0.63643 8.23084,-0.66662 9.95705,-0.60586 z m -25.16557,-0.006 c 1.50593,0.0513 4.69441,0.27953 6.10648,1.28427 1.17326,0.83478 1.63138,2.02796 1.75327,3.25407 0.23181,2.33153 -2.05074,6.72352 -2.05074,6.72352 l -13.11635,-0.19926 c 0,0 -1.78655,2.80156 -1.26234,4.14864 0.35871,0.92199 1.6007,1.25141 2.55603,1.50871 1.39263,0.37502 2.88376,0.13626 4.19388,-0.46682 0.96119,-0.44243 1.76686,-1.39565 2.21424,-1.96068 0.44749,-0.5651 4.17491,0.25349 4.75511,0.12454 0,0 -0.96428,4.32507 -2.59675,5.55546 -2.3029,1.73563 -5.66055,1.44499 -8.54304,1.36236 -2.29837,-0.0658 -5.08592,0.12425 -6.73856,-1.47422 -1.39957,-1.35361 -1.49434,-3.71497 -1.43793,-5.66116 0.0855,-2.94887 1.18141,-5.89176 2.67225,-8.43759 1.16951,-1.99704 1.96158,-4.04022 4.02651,-5.08537 1.77634,-0.89916 6.65104,-0.69109 6.65104,-0.69109 0,0 0.31492,0.006 0.8169,0.0145 z m -102.15984,0.28255 c 1.86495,0.0688 3.72114,0.39356 4.81805,1.7157 1.80539,2.17582 1.01229,5.71485 0.39,8.47286 -0.6856,3.03838 -2.40009,6.78005 -4.81727,8.74454 -2.15951,1.7552 -4.81339,1.71485 -7.59338,1.84048 -2.444,0.11059 -5.63984,0.47027 -7.20225,-1.41225 -1.88886,-2.27597 -0.64053,-5.96968 -0.0734,-8.87241 0.57947,-2.9662 1.19077,-6.4008 3.48195,-8.37175 2.2184,-1.90825 5.59206,-2.10364 8.51828,-2.12201 0.78078,-0.006 1.63036,-0.0272 2.47806,0.006 z m 101.4693,3.57599 c -0.61239,-0.0115 -1.24296,0.0633 -1.8173,0.11996 -0.92839,0.0917 -1.92981,0.0655 -2.75281,0.50481 -0.74992,0.40033 -1.53553,1.01314 -1.77821,1.8278 -0.25302,0.84916 -0.48151,2.44605 0.40431,2.46194 l 8.71965,0.15643 c 0,0 0.5178,-1.65415 0.38638,-2.36928 -0.18332,-0.99689 -0.57217,-1.80859 -1.45351,-2.30912 -0.5018,-0.28497 -1.09607,-0.38148 -1.70845,-0.39254 z m 114.73374,4.03715 -5.42445,14.42164 5.48703,-0.28895 4.30996,-10.41343 z m -218.7627,-2.77758 c -0.46682,-0.0139 -0.94373,0.0127 -1.37106,0.0151 -1.12065,0.008 -2.41416,0.0211 -3.28191,0.7298 -1.16764,0.95419 -1.50841,2.66143 -1.84145,4.13221 -0.36771,1.62366 -1.14553,3.67282 -0.13077,4.9926 0.80416,1.046 2.53103,0.92067 3.85039,0.9165 1.16214,-0.006 2.52783,-0.0459 3.38653,-0.82898 1.00033,-0.91239 1.3019,-2.60188 1.53057,-3.93634 0.30411,-1.77513 0.96379,-3.90462 -0.16688,-5.30649 -0.44714,-0.5544 -1.19741,-0.69175 -1.97542,-0.71507 z m 225.94556,9.3103 -2.50917,7.72071 7.06442,0.0411 0.51532,-3.15888 z m 7.76389,6.67514 -0.19237,1.22429 1.05053,0.0181 -0.006,-0.77933 -0.85308,-0.46296 z m -325.6623,-2.74177 -2.93836,3.18576 5.31422,-0.47232 z"
       id="path4501"
       inkscape:connector-curvature="0"
       sodipodi:nodetypes="cccccccccccccccccscccccccsscccssssccccsssscssscccccccccccccccccccccccccsscccccccccccccccccccccccccccccccsccccccccccccccccccccccccccccccccccccccccccccccccccccccccccccccccccccccccccccccccccccccccccsssssscccccccccccsssssssssssccsssssssssssscssssccssccsssssssssccssssccssccscsccsssccscsssscsscssscccssssssscssscssscssscccccccccccccccccccccccsssssssccsccccssssssccssccsssccscscsscccssssscsssscccsccsscccccccsssssscscccccccccccccccccccccccc" />
  </g>
</svg>
